PathFileType	4	(X/Y/Z)	C:/Users/opensim2020/Desktop/walking_exp_matlab/subject02_walking15_straight_01.trc	
DataRate	CameraRate	NumFrames	NumMarkers	Units	OrigDataRate	OrigDataStartFrame	OrigNumFrames	
100.00	100.00	8	42	mm	100.00	429	165	
Frame#	Time	LFHD			RFHD			LBHD			RBHD			C7			T10			CLAV			STRN			RBAK			LSHO			LUPA			LELB			LFRM			LWRA			LWRB			LFIN			RSHO			RUPA			RELB			RFRM			RWRA			RWRB			RFIN			LASI			RASI			LPSI			RPSI			LTHI			LKNE			LTIB			LANK			LHEE			LTOE			RTHI			RKNE			RTIB			RANK			RHEE			RTOE			*39			*40			*41			
		X1	Y1	Z1	X2	Y2	Z2	X3	Y3	Z3	X4	Y4	Z4	X5	Y5	Z5	X6	Y6	Z6	X7	Y7	Z7	X8	Y8	Z8	X9	Y9	Z9	X10	Y10	Z10	X11	Y11	Z11	X12	Y12	Z12	X13	Y13	Z13	X14	Y14	Z14	X15	Y15	Z15	X16	Y16	Z16	X17	Y17	Z17	X18	Y18	Z18	X19	Y19	Z19	X20	Y20	Z20	X21	Y21	Z21	X22	Y22	Z22	X23	Y23	Z23	X24	Y24	Z24	X25	Y25	Z25	X26	Y26	Z26	X27	Y27	Z27	X28	Y28	Z28	X29	Y29	Z29	X30	Y30	Z30	X31	Y31	Z31	X32	Y32	Z32	X33	Y33	Z33	X34	Y34	Z34	X35	Y35	Z35	X36	Y36	Z36	X37	Y37	Z37	X38	Y38	Z38	X39	Y39	Z39	X40	Y40	Z40	X41	Y41	Z41	X42	Y42	Z42	

42	0.410	1523.66785	-794.73126	1710.01794	1667.14185	-796.04749	1691.86169	1515.26477	-927.27502	1640.15723	1656.84436	-941.62445	1620.46033	1594.85840	-987.18896	1498.00989	1597.20581	-1042.17798	1223.62817	1565.93420	-848.81006	1429.97253	1570.51636	-798.10333	1258.20105	1662.55273	-1041.92993	1324.93909	1411.38379	-945.42059	1475.36169	1331.92017	-1039.10620	1305.90039	1308.77307	-1100.76111	1187.19031	1275.56958	-1165.10217	1079.38159	1254.61340	-1177.55103	939.42920	1252.45215	-1222.99976	972.87817	1232.61401	-1246.98254	914.50482	1769.00708	-896.50177	1464.74829	1863.80981	-904.80432	1279.42651	1893.54163	-865.79828	1138.64294	1906.72290	-790.17743	1042.92261	1881.79871	-693.23859	953.19342	1912.85510	-731.48248	926.26373	1917.30591	-668.00421	893.80304	1446.96912	-820.63696	965.96283	1704.37756	-827.76898	937.76239	1521.40271	-1029.69006	1010.60071	1634.10217	-1036.22827	1008.26575	1390.43958	-806.99969	662.21185	1440.57715	-781.85370	465.58289	1460.94055	-792.47650	271.17389	1501.77551	-726.39880	59.91603	1559.21094	-748.93988	31.70205	1482.24231	-568.79095	51.12582	1764.20667	-994.77490	656.80292	1731.54724	-1066.04980	458.65933	1736.21094	-1192.36523	316.14297	1704.20935	-1297.82422	150.90579	1648.13904	-1349.71460	121.11999	1704.12341	-1185.82422	29.63111	1613.82349	-893.84387	1779.52661	-3360.32227	2845.27539	1034.45105			 
43	0.420	1523.09692	-783.34552	1711.90051	1666.54211	-784.85339	1693.49927	1514.26282	-915.79718	1641.62463	1655.87073	-930.27765	1621.66504	1593.32263	-975.86584	1498.61536	1595.69470	-1028.85303	1224.26636	1564.37109	-837.09485	1431.39343	1569.00464	-785.55200	1260.10010	1660.48828	-1029.69177	1325.33337	1409.98718	-933.64136	1476.21094	1331.47375	-1025.94604	1305.42957	1309.22778	-1087.19763	1186.01331	1276.97632	-1150.56763	1077.36719	1257.18738	-1161.45215	937.23077	1255.16504	-1207.76367	970.71674	1235.09265	-1231.13965	911.57745	1767.92615	-885.12805	1465.88013	1862.37805	-894.30005	1280.39526	1891.90454	-856.24213	1139.17517	1904.96399	-781.03418	1043.22266	1879.87280	-684.26105	953.16852	1910.94995	-722.67706	926.40509	1915.04333	-659.26154	893.48010	1446.10303	-806.05859	967.43152	1702.59155	-812.51758	938.72681	1519.49243	-1014.89105	1012.01282	1632.74548	-1021.28113	1008.82684	1390.62976	-794.91962	662.99316	1439.83447	-771.28955	466.10187	1459.88989	-781.94867	272.06598	1500.29199	-720.36560	59.97373	1558.29736	-745.98859	33.34784	1478.30176	-564.41675	48.85553	1763.88025	-979.40094	657.34924	1733.78210	-1049.46155	459.18518	1737.89929	-1179.64136	319.98654	1706.65747	-1289.73584	158.31886	1649.86060	-1341.25989	131.34843	1704.89282	-1184.81262	29.81653	1613.32385	-882.81219	1780.85828	-3356.85547	2845.98413	1034.36731			 
44	0.430	1522.66418	-772.03949	1714.27234	1665.98718	-773.81384	1695.29565	1513.24365	-904.26758	1643.74634	1654.82751	-919.02435	1623.24524	1591.67346	-964.22906	1499.77161	1594.33594	-1015.68622	1224.92017	1563.22632	-825.23053	1433.38953	1567.74512	-772.46490	1262.42444	1658.73120	-1017.15814	1325.79688	1408.38574	-921.68994	1477.12122	1330.67944	-1012.77020	1305.12817	1309.52466	-1073.13733	1184.78101	1278.26465	-1135.51782	1075.17017	1259.47400	-1144.79614	934.73334	1257.13269	-1191.17517	967.34528	1237.74377	-1213.97729	908.52368	1767.19946	-874.45056	1467.47021	1860.93066	-884.33075	1281.23987	1890.22620	-846.92950	1139.88757	1903.28186	-772.16559	1043.43701	1877.98022	-675.81604	952.91583	1909.17322	-714.42413	926.42346	1912.82373	-651.10760	892.92908	1445.13074	-792.07880	968.48077	1700.40710	-797.55450	939.84717	1517.75793	-1000.41516	1013.98224	1631.93945	-1006.38220	1010.00171	1390.31287	-784.53528	663.86316	1438.84363	-759.78137	467.86761	1452.97327	-770.25830	273.58508	1500.12036	-718.96667	60.15356	1557.99231	-745.08801	33.76694	1477.49341	-563.67529	45.60559	1763.29065	-963.18372	657.89703	1736.37854	-1031.06567	459.47818	1740.17517	-1165.58936	324.31226	1708.60754	-1279.66443	165.88333	1650.98657	-1330.79626	141.79396	1705.42859	-1183.84216	29.82272	1612.67761	-871.75366	1782.59448	-3360.32471	2845.41602	1034.17188			 
45	0.440	1522.04565	-760.77026	1716.32031	1665.32678	-762.74890	1697.05725	1512.23401	-892.74207	1645.69287	1653.68250	-907.84009	1624.86511	1590.10181	-952.11298	1501.29407	1593.03198	-1002.56152	1225.72266	1562.13904	-813.25708	1435.42139	1566.63708	-759.10022	1264.83569	1656.46582	-1004.53192	1325.75159	1406.81763	-909.56482	1478.25354	1329.52625	-999.45465	1304.87610	1309.65466	-1058.32471	1183.50513	1279.38550	-1119.34753	1072.81995	1261.94470	-1126.92871	932.45471	1259.30811	-1173.64453	964.24286	1239.93250	-1195.60193	904.88788	1766.31458	-863.11700	1468.80042	1859.31519	-874.08484	1282.50354	1888.41528	-837.62689	1140.88049	1901.49255	-763.58929	1043.63074	1876.08350	-667.74396	952.40747	1907.23499	-706.57495	926.20251	1910.69348	-643.52026	892.16034	1443.87036	-778.00641	969.87549	1697.83655	-783.05115	940.98358	1516.24377	-986.20123	1016.26953	1631.50403	-991.56012	1011.79761	1390.07092	-773.59296	664.41711	1438.21228	-747.57263	469.72250	1448.05945	-758.45520	275.23260	1500.36157	-718.07727	61.24166	1557.66724	-744.76361	34.08626	1478.93445	-562.49951	43.79822	1762.93579	-946.56940	658.28528	1738.95093	-1010.76050	459.08649	1742.30359	-1149.03784	327.94431	1710.28198	-1267.42310	173.15891	1651.72400	-1318.25244	152.58844	1705.00244	-1182.39709	29.17996	1611.97937	-860.82910	1784.54529	-3357.13550	2845.95435	1034.31335			 
46	0.450	1521.39282	-749.47589	1718.29175	1664.57385	-751.66473	1698.75366	1511.17468	-881.34656	1647.47827	1652.56873	-896.61481	1626.42322	1588.65930	-939.92114	1502.88293	1591.69080	-989.54980	1226.65088	1561.09106	-801.34210	1437.39233	1565.18250	-746.54889	1266.98218	1654.63782	-992.32031	1326.53223	1405.37964	-897.35370	1479.56384	1328.49561	-985.14563	1304.49207	1309.72266	-1042.94739	1182.30029	1280.54138	-1102.57251	1070.76477	1264.68054	-1107.65515	929.58710	1261.22437	-1155.08057	961.08667	1242.31189	-1176.16541	901.16284	1765.43506	-851.85498	1470.33313	1857.46667	-864.04639	1283.79529	1886.52710	-828.22253	1141.94653	1899.70996	-755.23102	1043.94385	1874.29529	-660.11877	951.98480	1905.35852	-699.29053	925.95715	1908.65771	-636.61884	891.16876	1442.62280	-764.28796	971.48517	1695.10986	-768.91028	942.39203	1514.97595	-972.37909	1018.62238	1631.32825	-977.11932	1013.72351	1390.01343	-762.84320	665.13812	1438.11621	-736.09106	470.91785	1448.00854	-751.14917	277.03268	1500.61597	-715.68213	62.10360	1557.55176	-744.31830	34.77013	1481.40564	-560.54657	42.26884	1762.39233	-929.15637	658.13330	1740.94934	-989.05969	458.08618	1744.28796	-1130.44128	330.71780	1711.98779	-1252.81006	179.86528	1652.60876	-1303.27795	163.08403	1704.54028	-1180.26880	28.97018	1611.28015	-849.72717	1786.26086	-3356.98120	2845.99316	1034.23523			 
47	0.460	1520.60852	-738.19696	1720.12646	1663.78833	-740.64941	1700.37695	1510.15039	-869.78894	1648.89880	1651.48938	-885.38263	1627.76526	1587.34082	-927.78339	1504.29846	1590.33191	-976.72534	1227.52673	1560.11499	-789.09747	1439.18237	1564.37256	-733.26270	1269.16248	1653.07971	-979.90656	1327.40747	1404.06653	-884.94476	1480.94653	1327.32434	-970.20203	1304.25220	1309.81726	-1026.89636	1181.04797	1281.53809	-1084.95630	1068.52100	1266.76758	-1087.94568	927.70844	1262.82581	-1135.58289	957.77307	1244.57178	-1155.25732	897.31873	1764.36572	-840.59656	1472.02539	1855.64807	-854.10193	1285.21753	1884.67615	-818.89526	1143.13428	1897.87830	-747.06665	1044.25073	1872.47131	-653.16595	951.07489	1903.49365	-692.46008	925.64453	1906.70264	-630.23425	890.00134	1441.10376	-751.07721	972.89551	1692.23413	-755.21484	943.69836	1514.01880	-958.90643	1020.81866	1631.47656	-963.14642	1015.43939	1389.93213	-752.29633	666.40753	1438.22327	-725.83734	471.44806	1449.34705	-746.70496	278.21875	1501.18555	-714.68591	62.60812	1557.63623	-743.84204	34.75489	1482.66052	-559.57629	40.76229	1762.00098	-911.05310	657.37982	1742.35754	-966.33868	456.63486	1745.88135	-1110.38757	333.14246	1713.98804	-1236.13550	186.07027	1654.23096	-1286.67798	173.43797	1703.98645	-1177.40198	28.91586	1610.46313	-838.65192	1787.69641	-3360.38013	2845.31934	1034.25500			 
48	0.470	1519.94202	-727.00623	1721.86816	1663.03589	-729.65979	1701.97400	1509.14636	-858.33521	1650.11340	1650.45459	-874.10730	1628.86011	1586.04480	-915.82385	1505.35376	1588.88391	-964.09583	1228.41101	1559.28406	-776.82397	1440.79114	1563.48889	-720.39246	1270.95691	1651.35791	-967.36139	1327.99670	1402.89453	-872.22266	1482.27795	1325.72485	-955.81824	1303.86426	1309.66296	-1010.44867	1179.77637	1282.16125	-1066.27063	1065.93530	1268.79199	-1067.30322	924.94586	1264.19922	-1115.02942	954.27167	1246.41077	-1133.40845	892.91254	1763.12537	-829.36713	1473.49854	1853.90515	-844.09607	1286.74207	1882.92163	-809.61292	1144.36267	1896.11560	-739.08527	1044.61560	1870.61926	-646.52527	950.29010	1901.79468	-686.01434	925.26660	1904.85913	-624.26196	888.59430	1439.68567	-738.25891	974.59039	1689.33606	-741.93213	944.90338	1513.45642	-945.84113	1022.69476	1631.66528	-949.53528	1016.93359	1390.34058	-740.50983	667.20508	1438.28259	-717.27747	471.53207	1450.83594	-743.45740	278.68881	1501.63513	-713.49298	62.35480	1557.91797	-743.56403	34.93323	1482.89282	-559.21649	39.38714	1761.77893	-892.17273	655.93536	1743.75330	-943.06696	454.64835	1746.70386	-1088.85327	334.66315	1716.39478	-1218.33679	192.12207	1656.23071	-1269.25513	183.71077	1703.12756	-1172.00769	30.63228	1609.57092	-827.82129	1788.96106	-3360.30396	2845.25195	1034.52332			 
49	0.480	1519.20105	-715.85938	1723.54456	1662.23938	-718.55823	1703.67493	1508.18970	-846.85052	1651.13062	1649.40417	-862.73792	1629.85706	1584.76758	-903.95526	1506.10364	1587.26746	-951.45483	1229.38916	1558.39490	-764.46271	1442.09387	1562.59436	-707.96539	1272.29614	1649.59521	-955.55524	1328.95471	1401.69873	-859.45184	1483.70276	1324.64099	-939.97437	1303.75952	1309.42444	-993.22296	1178.38232	1282.74963	-1047.39014	1063.68872	1271.13147	-1045.21204	921.91199	1265.30237	-1093.67383	950.64447	1248.09595	-1110.77222	888.69891	1761.80078	-818.21912	1474.98657	1852.28650	-834.09949	1288.19592	1881.12781	-800.56073	1145.61609	1894.34619	-731.32642	1044.86133	1869.07910	-639.91565	949.15607	1900.18799	-679.77783	924.78485	1903.11560	-618.69391	887.01752	1438.26587	-725.71826	976.42969	1686.68140	-728.78699	946.02197	1513.16333	-933.24414	1024.26489	1631.76831	-936.42371	1018.23517	1390.09827	-729.16199	668.12042	1438.18005	-710.24835	471.36005	1451.94128	-740.70044	278.68295	1501.99963	-712.65710	62.51917	1558.27002	-742.82532	34.58124	1483.84583	-558.61694	38.37068	1761.36511	-872.64319	653.69568	1745.15417	-919.00824	452.39230	1747.76624	-1066.46777	335.93921	1717.74707	-1200.15466	198.53883	1657.65283	-1251.95447	194.12190	1703.08435	-1162.37598	35.62762	1608.58142	-817.32574	1790.11353	-3357.27051	2846.05859	1034.39709			 
